<svg id="320dc3de-756e-4e56-8e26-553880edbc71" data-name="Capa 6" xmlns="http://www.w3.org/2000/svg" viewBox="0 0 450 450"><defs><style>.\36 866996b-2693-46ac-94db-1b993bf250eb{fill:#aeb7bc;stroke:#3d3d3d;}.\36 866996b-2693-46ac-94db-1b993bf250eb,.a1d12cad-d759-4895-b483-70075154933c,.e2644a79-6994-4f23-824a-e80e1d1b7d40{stroke-miterlimit:10;}.\36 866996b-2693-46ac-94db-1b993bf250eb,.a1d12cad-d759-4895-b483-70075154933c{stroke-width:0.5px;}.e2644a79-6994-4f23-824a-e80e1d1b7d40{fill:#a9b7b7;stroke:#303030;stroke-width:0.25px;}.\37 0f37bf4-23d7-46d0-b933-4128ac409e61{fill:#acadb2;}.a36192bc-ab25-49f7-a6df-2992f6cd2f05{fill:#818a8f;}.\36 6a3f2d6-74ed-4ca3-8498-bdc903acb5f7{fill:#838c91;}.\31 7dbd5ec-8207-4715-a569-88fc592f63cf{fill:#8f9092;}.\38 98bcb34-971a-4b2c-8910-5257ccc8851f{fill:#6f787d;}.\31 e69c386-1a38-4984-97dd-0d5c484cefcd{fill:#2b7a77;}.f32283d0-3a36-4b36-bafd-88a380d352a2{fill:#b0b5b8;}.\37 31e4216-f3ce-4386-8858-42d93e69e225,.a1d12cad-d759-4895-b483-70075154933c{fill:#797979;}.a1d12cad-d759-4895-b483-70075154933c{stroke:#3a3a3a;}.be608cb1-f32f-4a2a-ac30-2c4a2203c06a{fill:#606060;}.\32 22f6f9f-98f4-4973-9352-0098905db93d{fill:#303030;}.\39 1d3f601-c97d-485d-bd5a-733486e98fac{fill:#76797e;}.\34 6017ec6-9fb6-42be-ac12-1d6560d14395{fill:#9ca5a4;}.\33 8e2fb4b-915b-4913-83a4-71ed43c5fc8a{fill:#c2c6c7;}.\39 a06bab0-15d6-4f5e-b29f-5ebde4119d63{fill:#a3a5b1;}.\32 d0cbad7-1fe0-4318-b4fd-6e3c90de494b{fill:#afb4b7;}.\38 09a27d3-67b1-4d20-a424-c4f2e908b55e{fill:#ccd2d2;}.\39 0710cee-f9b0-4fff-8330-25fa2292471e{fill:#656e73;}.\31 496830b-8b3c-473c-bfdb-75b542ef9158{fill:#4e555f;}.cacc8d69-e467-40dd-bcf3-b62570161556{fill:#c5c6ca;}.\35 ecbe14b-e0d2-453f-98ce-f51bd5cd3e01{fill:#c0c5c9;}.ac2f9797-6698-4a9e-aa45-93ac73facd4d{fill:#c7c6cc;}.\36 b2f098c-7193-45c0-9497-4b461ceee9c6{fill:#2f2f2f;}.cf754d04-fe10-49c3-8990-1687ca6f721a{fill:none;}.a1827123-94e4-44d3-8c83-f267fce435a2{fill:#cdd6d5;}.fbd45ece-a22d-49eb-b443-27c1ba18042e{fill:#939aa0;}.e0e056d5-7319-4ebc-9e76-33d1b6d4e0a3{fill:#215955;}.a0722f0c-9091-4e97-ac8e-6ba288b6fb58{fill:#e8e9eb;}.\30 df3922f-13e9-47e2-a288-f642ffcbbb79{fill:#3da8a0;}.\39 819078c-9bea-4f25-9256-b304bc9ba98e{fill:#9e9e9e;}.\36 4d7b58d-c8ed-49d1-8e04-42021ef1824c{fill:#d8ad8f;}.f6b94c8a-3b8e-4259-9c7f-90cf68350f44{fill:#def2f1;}.\35 b7ef972-becd-4f91-b2c0-6a529f9291d1{fill:#e5c0a8;}.a7eca892-a541-4221-a818-c2c5f7d3f740{fill:#17242a;}.a60c508b-84b7-432a-b0e9-879731ba594f{fill:#3aafa9;}.\35 4088f57-f27c-40c7-b479-f8e3d7ec2111{fill:#21333a;}.\32 e1e49d0-3a2f-4537-bd0f-a172038468bd{fill:#fff;}</style></defs><title>oxidomlogo</title><path class="6866996b-2693-46ac-94db-1b993bf250eb" d="M233.05,125.34s-6.71,6.53-1.59,16L291.1,252.63a11.3,11.3,0,0,0,12.33,4.45l21.95-11.82s6.65-4.46,3.38-13.79L269.49,120.89a14.62,14.62,0,0,0-14.39-7.73Z"/><path class="e2644a79-6994-4f23-824a-e80e1d1b7d40" d="M232.85,120.77,252,110.35s2.39,1.34,3.11,2.81l-22,12.18A14.46,14.46,0,0,1,232.85,120.77Z"/><path class="70f37bf4-23d7-46d0-b933-4128ac409e61" d="M226.47,101.51l13.37-7.07a.67.67,0,0,0,.28-.93l-.67-1.18a.68.68,0,0,0-.9-.26l-13.46,7.05a.68.68,0,0,0-.26,1l.75,1.19A.67.67,0,0,0,226.47,101.51Z"/><path class="a36192bc-ab25-49f7-a6df-2992f6cd2f05" d="M233.23,112.5l-2.67-5.16a.83.83,0,0,0-1.19-.32,3.3,3.3,0,0,0-1.67,3.24,2,2,0,0,1,1.57,2.66,3.18,3.18,0,0,0,3.64.68A.82.82,0,0,0,233.23,112.5Z"/><path class="66a3f2d6-74ed-4ca3-8498-bdc903acb5f7" d="M245.85,106.84l-3.8-6.82c-.32-.58-.2-1.24.26-1.42a3.43,3.43,0,0,1,4,1,3.18,3.18,0,0,0,1.85,3.71s.91,3-1.06,4.12C246.68,107.64,246.13,107.36,245.85,106.84Z"/><polygon class="17dbd5ec-8207-4715-a569-88fc592f63cf" points="237.1 114.03 229.48 99.88 236.72 95.98 244.44 110.3 237.1 114.03"/><polygon class="898bcb34-971a-4b2c-8910-5257ccc8851f" points="230.76 107.81 242.7 101.38 245.26 106.13 233.26 112.59 230.76 107.81"/><path class="1e69c386-1a38-4984-97dd-0d5c484cefcd" d="M231.46,141.37l38-20.48a14.48,14.48,0,0,0-14.39-7.73l-22.18,12A14.29,14.29,0,0,0,231.46,141.37Z"/><polygon class="f32283d0-3a36-4b36-bafd-88a380d352a2" points="233.82 109.59 242.66 104.83 244.43 108.11 235.54 112.9 233.82 109.59"/><path class="a1d12cad-d759-4895-b483-70075154933c" d="M291.88,253.81l37.4-20.29s1.51,7.16-3.06,11.1a7.59,7.59,0,0,1-1.38.93l-20.31,10.94a8.14,8.14,0,0,1-3.26,1A11.64,11.64,0,0,1,291.88,253.81Z"/><path class="be608cb1-f32f-4a2a-ac30-2c4a2203c06a" d="M232.6,120.19a.37.37,0,0,1-.3-.16,1.3,1.3,0,0,0-1.14-.64,1.36,1.36,0,0,0-.71.2.35.35,0,0,1-.2.07.32.32,0,0,1-.2-.07A62.58,62.58,0,0,1,213.68,99.8a2.21,2.21,0,0,1,.75-2.86c5.68-3.77,19.77-12.78,27.94-15a2.15,2.15,0,0,1,.61-.09,2.24,2.24,0,0,1,2,1.15c2.1,3.82,7.1,13.82,8,24.25a.32.32,0,0,1-.17.32l-.36.22a1.36,1.36,0,0,0-.48,1.78.3.3,0,0,1,0,.26.32.32,0,0,1-.16.2l-19.07,10.17A.26.26,0,0,1,232.6,120.19Zm9-32.75a2.15,2.15,0,0,0-1,.26L220.27,98.62A2.12,2.12,0,0,0,219.2,100a2.18,2.18,0,0,0,.32,1.72l10.31,14.82a2.15,2.15,0,0,0,2.75.68l16.77-8.84a2.15,2.15,0,0,0,1-2.7l-6.8-16.9A2.11,2.11,0,0,0,241.56,87.44Z"/><path class="222f6f9f-98f4-4973-9352-0098905db93d" d="M243,82.3a1.72,1.72,0,0,1,1.52.89c2.08,3.78,7,13.66,7.95,24l-.28.17a1.85,1.85,0,0,0-.73,2.29l-18.79,10a1.86,1.86,0,0,0-2.39-.52,63.16,63.16,0,0,1-16.14-19.54,1.74,1.74,0,0,1,.59-2.23c4.41-2.93,19.46-12.67,27.8-15a1.49,1.49,0,0,1,.47-.07M231.59,118a2.66,2.66,0,0,0,1.23-.3l16.76-8.84a2.63,2.63,0,0,0,1.22-3.32L244,88.6a2.64,2.64,0,0,0-2.45-1.66,2.58,2.58,0,0,0-1.25.32L220,98.18a2.68,2.68,0,0,0-1.32,1.71,2.65,2.65,0,0,0,.4,2.12l10.31,14.83a2.63,2.63,0,0,0,2.17,1.13M243,81.3a2.74,2.74,0,0,0-.74.1c-8.33,2.32-22.82,11.63-28.08,15.12a2.72,2.72,0,0,0-.93,3.51,63.63,63.63,0,0,0,16.51,20,.81.81,0,0,0,.51.18.93.93,0,0,0,.45-.13v0a.92.92,0,0,1,.45-.12.86.86,0,0,1,.72.39h0a.83.83,0,0,0,.72.4.81.81,0,0,0,.39-.1l19.06-10.17a.83.83,0,0,0,.34-1.14.84.84,0,0,1,.31-1.11l.35-.22a.84.84,0,0,0,.41-.79c-.92-10.5-5.91-20.52-8.09-24.45A2.72,2.72,0,0,0,243,81.3ZM231.59,117a1.63,1.63,0,0,1-1.35-.7l-10.3-14.83a1.64,1.64,0,0,1,.56-2.38l20.28-10.92a1.56,1.56,0,0,1,.78-.2,1.65,1.65,0,0,1,1.52,1l6.79,16.91a1.63,1.63,0,0,1-.75,2.06l-16.77,8.84a1.59,1.59,0,0,1-.76.19Z"/><rect class="17dbd5ec-8207-4715-a569-88fc592f63cf" x="235.55" y="111.51" width="10.48" height="0.71" transform="translate(-24.25 127.57) rotate(-28.31)"/><polygon class="898bcb34-971a-4b2c-8910-5257ccc8851f" points="230.76 107.81 242.84 101.3 245.4 106.06 233.26 112.59 230.76 107.81"/><rect class="17dbd5ec-8207-4715-a569-88fc592f63cf" x="232.54" y="97.04" width="8.23" height="14.98" transform="translate(-21.26 124.73) rotate(-28.31)"/><rect class="91d3f601-c97d-485d-bd5a-733486e98fac" x="239.14" y="92.86" width="0.9" height="18.77" transform="translate(-19.83 125.85) rotate(-28.31)"/><rect class="17dbd5ec-8207-4715-a569-88fc592f63cf" x="235.55" y="111.51" width="10.48" height="0.71" transform="translate(-24.25 127.57) rotate(-28.31)"/><rect class="46017ec6-9fb6-42be-ac12-1d6560d14395" x="235.92" y="110.88" width="9.06" height="0.71" transform="translate(-23.99 127.34) rotate(-28.31)"/><rect class="38e2fb4b-915b-4913-83a4-71ed43c5fc8a" x="234.62" y="95.06" width="1.8" height="18.77" transform="translate(-21.36 124.18) rotate(-28.31)"/><path class="70f37bf4-23d7-46d0-b933-4128ac409e61" d="M226.47,101.51l13.37-7.07a.67.67,0,0,0,.28-.93l-.67-1.18a.68.68,0,0,0-.9-.26l-13.46,7.05a.68.68,0,0,0-.26,1l.75,1.19A.67.67,0,0,0,226.47,101.51Z"/><path class="a36192bc-ab25-49f7-a6df-2992f6cd2f05" d="M233.23,112.5l-2.67-5.16a.83.83,0,0,0-1.19-.32,3.3,3.3,0,0,0-1.67,3.24,2,2,0,0,1,1.57,2.66,3.18,3.18,0,0,0,3.64.68A.82.82,0,0,0,233.23,112.5Z"/><path class="66a3f2d6-74ed-4ca3-8498-bdc903acb5f7" d="M245.85,106.84l-3.8-6.82c-.32-.58-.2-1.24.26-1.42a3.43,3.43,0,0,1,4,1,3.18,3.18,0,0,0,1.85,3.71s.91,3-1.06,4.12C246.68,107.64,246.13,107.36,245.85,106.84Z"/><polygon class="9a06bab0-15d6-4f5e-b29f-5ebde4119d63" points="228.36 96.18 234.42 92.92 234.93 93.88 228.85 97.16 228.36 96.18"/><polygon class="2d0cbad7-1fe0-4318-b4fd-6e3c90de494b" points="233.82 109.59 242.66 104.83 244.43 108.11 235.54 112.9 233.82 109.59"/><rect class="809a27d3-67b1-4d20-a424-c4f2e908b55e" x="235.89" y="107.47" width="5.11" height="3.28" transform="translate(-23.22 126.13) rotate(-28.31)"/><rect class="90710cee-f9b0-4fff-8330-25fa2292471e" x="243.44" y="101.15" width="0.72" height="5.4" transform="translate(-20.09 128.04) rotate(-28.31)"/><rect class="1496830b-8b3c-473c-bfdb-75b542ef9158" x="232.01" y="107.31" width="0.72" height="5.4" transform="translate(-24.38 123.36) rotate(-28.31)"/><path class="70f37bf4-23d7-46d0-b933-4128ac409e61" d="M225.09,99.12a.68.68,0,0,0-.26,1l.75,1.19a.67.67,0,0,0,.89.24l1.83-1L227,98.12Z"/><polygon class="cacc8d69-e467-40dd-bcf3-b62570161556" points="227 98.12 228.3 100.54 229.07 100.14 227.77 97.72 227 98.12"/><polygon class="5ecbe14b-e0d2-453f-98ce-f51bd5cd3e01" points="230.24 96.42 231.54 98.83 235.04 96.98 233.75 94.58 230.24 96.42"/><path class="ac2f9797-6698-4a9e-aa45-93ac73facd4d" d="M240.12,93.51l-.67-1.18a.68.68,0,0,0-.9-.26l-1.13.59L238.7,95l1.14-.6A.67.67,0,0,0,240.12,93.51Z"/><path class="6b2f098c-7193-45c0-9497-4b461ceee9c6" d="M252.38,110.07l-3.24-6,.73,1.82a1.63,1.63,0,0,1-.75,2.06l-6,3.18,1.71,3.17,7.25-3.87A.79.79,0,0,0,252.38,110.07Z"/><path class="cf754d04-fe10-49c3-8990-1687ca6f721a" d="M232.35,116.78l.59-.31L225,101.77l-2.88,1.56,3.08,5.72,5,7.22A1.63,1.63,0,0,0,232.35,116.78Z"/><path class="cf754d04-fe10-49c3-8990-1687ca6f721a" d="M233,120.59a.84.84,0,0,1-1.11-.3h0a.85.85,0,0,0-.82-.38l2.37,4.39,2.89-1.55-1.64-3Z"/><path class="6b2f098c-7193-45c0-9497-4b461ceee9c6" d="M231.88,120.28h0a.84.84,0,0,0,1.11.3l1.69-.9-1.74-3.22-.59.31a1.63,1.63,0,0,1-2.11-.51l-5-7.22,5.84,10.85A.85.85,0,0,1,231.88,120.28Z"/><polygon class="a1827123-94e4-44d3-8c83-f267fce435a2" points="242.7 115.41 236.98 118.52 238.51 122.32 245.49 118.47 242.7 115.41"/><path class="fbd45ece-a22d-49eb-b443-27c1ba18042e" d="M255.1,113.16a15.67,15.67,0,0,1,5.92.6A15.3,15.3,0,0,0,255.1,113.16Z"/><path class="fbd45ece-a22d-49eb-b443-27c1ba18042e" d="M328.65,241.16a12.54,12.54,0,0,0,.11-9.69L269.49,120.89l-4.19,2.26,60.47,112.26h0l3.5-1.9A14.82,14.82,0,0,1,328.65,241.16Z"/><path class="e0e056d5-7319-4ebc-9e76-33d1b6d4e0a3" d="M261,113.76a15.67,15.67,0,0,0-5.92-.6l-.44.24c2.81.82,7.08,3.14,10.64,9.75l4.19-2.26A14.52,14.52,0,0,0,261,113.76Z"/><path class="a0722f0c-9091-4e97-ac8e-6ba288b6fb58" d="M305.09,246.55,244.7,134.24,237,138.39l60.47,112.26.07.09,5.65-3.07S305.11,246.57,305.09,246.55Z"/><path class="731e4216-f3ce-4386-8858-42d93e69e225" d="M329.28,233.52l-3.5,1.9c.11.15,2.63,3.83,2.38,6.77a8.78,8.78,0,0,0,.49-1A14.82,14.82,0,0,0,329.28,233.52Z"/><path class="0df3922f-13e9-47e2-a288-f642ffcbbb79" d="M244.7,134.24s-4.54-7-3.6-8.93l12.64-6.81-1-1.87L234.4,126.5l.55,1a18.52,18.52,0,0,0,1.94,10.64l.12.23,5.88-3.17Z"/><path class="9819078c-9bea-4f25-9256-b304bc9ba98e" d="M305.13,246.63l-7.58,4.11c.42.59,4.25,6.78,11.4,3.37l3.06-1.65C309.23,252,307.49,249.73,305.13,246.63Z"/><path class="64d7b58d-c8ed-49d1-8e04-42021ef1824c" d="M178.06,109.38c3.39,3.76,17.29,24.64,19.6,26s17.08,6.83,21.75,8.86c4.18-.08,8.76-.26,8.76-.26A21.53,21.53,0,0,1,233,148.6c1.66,2.47,0,5.37-3.08,7.6,0,0-7-3.34-7.49-5.16s-11.27-1.17-14.84-1.36-20.49-7.61-23.82-12.56S178.06,109.38,178.06,109.38Z"/><path class="f6b94c8a-3b8e-4259-9c7f-90cf68350f44" d="M179.83,109.05c2.82,3.14,14.14,19.09,14.14,19.09a12.07,12.07,0,0,1-4.18,5.63c-2.92,1.88-8.76-14-8.76-14Z"/><path class="64d7b58d-c8ed-49d1-8e04-42021ef1824c" d="M175.52,108.86c2.29-6.67,5.71-14.58,5.71-14.58L164.66,85s3.44,8.34-3.13,19.39C160.47,106.15,175.52,108.86,175.52,108.86Z"/><path class="64d7b58d-c8ed-49d1-8e04-42021ef1824c" d="M188.53,64.28c-5-7.87-26.83-9.22-27.14,5-.56,25.85,15.7,27.25,15.7,27.25,5.32-.79,6.73-.38,10.4-2.36,1.8-1,3.07-4,3.76-7.73,1.63-.58,3.34-1.4,3-2.57a32.32,32.32,0,0,1-2.39-3.9C191.92,74.13,190.88,68,188.53,64.28Z"/><path class="5b7ef972-becd-4f91-b2c0-6a529f9291d1" d="M186.45,60.47c-7.25-.55-25,.55-25.34,8.86-1,25,15.7,27.25,15.7,27.25l6.31-.83C175.15,87.05,181.19,66.18,186.45,60.47Z"/><path class="a7eca892-a541-4221-a818-c2c5f7d3f740" d="M166.25,62.94c1.61-2.67,1.7-5.24,8.46-5.42,6.56-.17,9-1,13.48,3.32,2.27,2.21,2.33,7.09,2.33,7.09a11.34,11.34,0,0,0-4.08.07c-1.55.48-3.7-.35-5.68,2.64A14.3,14.3,0,0,0,178.7,76s-6.61,2.68-6.66,4.88S165,89.77,165,89.77,161.65,80.93,160.3,76C157.13,64.53,165.88,63.57,166.25,62.94Z"/><path class="a7eca892-a541-4221-a818-c2c5f7d3f740" d="M199.7,60.1c2.81-.55,4.82,1.53,3.29,4.8s-3.26,2.77-6.22,3.17a52.29,52.29,0,0,1-8.7.4Z"/><path class="a60c508b-84b7-432a-b0e9-879731ba594f" d="M162.8,85.53c1.92-1.74,12.41-12.36,12.41-12.36s11,.55,14.43-1.85,5.67-10.67,11.87-11.24c-7.82-.07-11.12.89-11.12.89s-4.55-5.58-14.19-5.61c-4.16,0-10.33,2.5-12.2,4.76s-7.11,6.32-5.93,13.51A29.38,29.38,0,0,0,162.8,85.53Z"/><path class="5b7ef972-becd-4f91-b2c0-6a529f9291d1" d="M175.28,77.76c-1.1-1-2-2.52-3.33-1.2s-2.69,7.68,0,9.56S175.28,77.76,175.28,77.76Z"/><path class="1e69c386-1a38-4984-97dd-0d5c484cefcd" d="M189.64,71.32c3.43-2.39,5.67-10.67,11.87-11.24-7.82-.07-11.12.89-11.12.89s-4.55-5.58-14.19-5.61a21.22,21.22,0,0,0-8.5,2.21c4.91,3.93,6.6,11.6,4.34,18.8l3.17-3.2S186.22,73.72,189.64,71.32Z"/><path class="54088f57-f27c-40c7-b479-f8e3d7ec2111" d="M133.2,258.16c-3.39.87-9.07,5-8.13,7.82,2.65,8,5.32,4.69,9.7,16.58,2.07,5.62,9.4,4.07,13.16,4.38s2.16-3.44-3.15-7.19c-1.51-1.07-.84-14.08-1.15-16-3.49.24-3.73.27-4.8-4.38S133.2,258.16,133.2,258.16Z"/><path class="54088f57-f27c-40c7-b479-f8e3d7ec2111" d="M188.28,279.34c.24,7.68-3.72,11.35.19,13.14s8.63-.26,20.35,1c10.75,1.14,8.54-5,8.54-5a78.12,78.12,0,0,1-15.83-8.39C200.37,279.24,188.28,279.34,188.28,279.34Z"/><path class="1e69c386-1a38-4984-97dd-0d5c484cefcd" d="M174.1,164.24C176,177,187,180.12,186.24,189.3c-2.07,23.56-12.8,42.46-15.83,46.55-4.22,5.68-24.9,35.66-24.9,35.66l-12.93-15s12.18-28.64,18.75-35.52,12.61-48.41,12.61-48.41Z"/><path class="a60c508b-84b7-432a-b0e9-879731ba594f" d="M158.34,164.63c-.66,6.68-2.75,10.44-1.5,22.53.68,6.54,10.93,30.83,17.1,48,2.06,5.71,10.78,44.9,10.78,44.9l21.27-.42s-6.76-44.2-8.58-51.48c-3.12-12.49-8.54-38-8-43,1.66-16.69,1-19,1-19Z"/><path class="1e69c386-1a38-4984-97dd-0d5c484cefcd" d="M164.35,100.82c-1,5.32-5.48,8.46-3.44,15.12s-4,31.11-5.06,39.62,1.54,11.07,3.08,11.58,28.77,4.77,30.66,5c2.32.3,8.13-4.17-2.18-43.65-.88-3.36-.19-5.76-1.16-8.48-2.35-6.57-8.57-14.24-10-14.55C171.23,104.36,164.35,100.82,164.35,100.82Z"/><path class="a60c508b-84b7-432a-b0e9-879731ba594f" d="M157.78,118.76c-.71,6.92-1.79,27.88-2.21,36.44-.19,3.93-.63,8.36,2.62,11.93.46.51,5.5,1.08,12.1,2,.14-5.27-7.19-3.65-2.19-44.11,1-8.24-2.5-3.34-3.12-9-.91-8.19-.11-10.43,4-13.24A29.94,29.94,0,0,1,163.1,100C160.59,104.05,159.35,103.42,157.78,118.76Z"/><path class="f6b94c8a-3b8e-4259-9c7f-90cf68350f44" d="M162.26,101l1.36-3.13a33.21,33.21,0,0,0,13.77,6.67,10.09,10.09,0,0,1,0,2.19S173.32,107.8,162.26,101Z"/><polygon class="a7eca892-a541-4221-a818-c2c5f7d3f740" points="273.67 271.52 289.93 260.07 292.01 263.03 275.75 274.47 273.67 271.52 273.67 271.52"/><path class="54088f57-f27c-40c7-b479-f8e3d7ec2111" d="M277.61,273.2a14,14,0,1,1-14-14A14,14,0,0,1,277.61,273.2Z"/><path class="f6b94c8a-3b8e-4259-9c7f-90cf68350f44" d="M270.59,273.2a7,7,0,1,1-7-7A7,7,0,0,1,270.59,273.2Z"/><path class="54088f57-f27c-40c7-b479-f8e3d7ec2111" d="M291.93,264.35c-2.2-1.24-4.16-3.38-6.32-7h0c-2.12-3.54-14.7-27.22-27.3-50.88h0c-12.47-23.43-25.07-47-26.53-49.28h0a2.85,2.85,0,0,0-2.48-1.1h0c-2.71-.13-7.51,2.78-9.42,4.35h0c-.66.5-1,.8-1,.8h0a3,3,0,0,1-4.25-.3h0a3,3,0,0,1,.3-4.25h0c.29-.07,6.82-6.38,14.37-6.62h0a9,9,0,0,1,7.22,3.4h0a16.47,16.47,0,0,1,1.13,1.83h0c.47.82,1.09,1.94,1.85,3.32h0c1.51,2.75,3.56,6.54,6,11.05h0c4.85,9,11.16,20.86,17.55,32.85h0c12.74,23.94,25.86,48.61,27.74,51.74h0c1.87,3.13,3.26,4.35,4.09,4.8h0a4.36,4.36,0,0,0,2.45.46h0l.2-.07h0c.34-.13.89-.35,1.55-.64h0c1.33-.59,3.16-1.46,5.29-2.5h0c4.26-2.1,9.72-4.92,15.1-7.74h0c10.77-5.63,21.18-11.26,21.2-11.27h0a3,3,0,0,1,4.07,1.22h0a3,3,0,0,1-1.21,4.07h0s-9.2,5-19.25,10.26h0c-10.13,5.31-20.82,10.82-24.7,12.26h0a5.65,5.65,0,0,1-2,.44h-.29a10.52,10.52,0,0,1-5.37-1.22ZM231.76,157.19h0Z"/><path class="54088f57-f27c-40c7-b479-f8e3d7ec2111" d="M264.48,276.21l-6.22-72.06a2.42,2.42,0,0,1,2.19-2.61h0a2.42,2.42,0,0,1,2.61,2.2h0l6.22,72.06a2.39,2.39,0,0,1-2.19,2.6h-.21a2.42,2.42,0,0,1-2.4-2.2Z"/><path class="54088f57-f27c-40c7-b479-f8e3d7ec2111" d="M282.94,281.43a14,14,0,1,1-14-14A14,14,0,0,1,282.94,281.43Z"/><path class="f6b94c8a-3b8e-4259-9c7f-90cf68350f44" d="M275.92,281.43a7,7,0,1,1-7-7A7,7,0,0,1,275.92,281.43Z"/><path class="5b7ef972-becd-4f91-b2c0-6a529f9291d1" d="M173.94,111.15l21.14,28,18.31,8.13s7.73.76,11.3.84,3.5,3.65,5.82,6.68-1.36,7.71-3.74,7.67-2.26-5.41-5.25-5.48-7.12-1.34-8.91-1.38-23.14-4.66-23.14-4.66l-19.8-21.88,2.43-19.63Z"/><path class="2e1e49d0-3a2f-4537-bd0f-a172038468bd" d="M162.78,111.2c1.48-3.49,5.48-6.19,11-3.83,6.2,2.67,8.86,11.87,19,23.34C192.6,134.8,181.56,144,178,143.24s-12.92-15.91-14.1-18S161,115.36,162.78,111.2Z"/><path class="54088f57-f27c-40c7-b479-f8e3d7ec2111" d="M315.38,253s-6.17-12.33-14.34-28.14h0c-8.16-15.8-18.34-35.1-26.32-49h0c-5.23-9.18-9.87-16.25-11.42-17.49h0a8.55,8.55,0,0,0-5.84-2.34h0c-5.08-.13-11,4.79-16.33,6.88h0a2.42,2.42,0,0,1-3.09-1.44h0a2.42,2.42,0,0,1,1.44-3.09h0c4-1.29,10.34-7,18-7.17h0a13.5,13.5,0,0,1,9,3.52h0c2.84,2.56,7,9.32,12.44,18.73h0c5.37,9.34,11.69,21,17.72,32.49h0c12.09,22.92,23.06,44.87,23.06,44.88h0a2.41,2.41,0,0,1-1.07,3.23h0a2.44,2.44,0,0,1-1.08.25h0a2.41,2.41,0,0,1-2.15-1.33Z"/><path class="1e69c386-1a38-4984-97dd-0d5c484cefcd" d="M156.85,330.3a16.8,16.8,0,0,1-2.09,8.32,15.34,15.34,0,0,1-5.75,5.86,16.61,16.61,0,0,1-16.24,0,15.27,15.27,0,0,1-5.75-5.86,16.69,16.69,0,0,1-2.09-8.32,17.73,17.73,0,0,1,2.09-8.78,14.09,14.09,0,0,1,5.68-5.72,17,17,0,0,1,8.23-1.94,16.77,16.77,0,0,1,8.14,1.94,14.12,14.12,0,0,1,5.69,5.72A17.84,17.84,0,0,1,156.85,330.3Zm-16,9.52a3.47,3.47,0,0,0,1.36-.25,3,3,0,0,0,1-.7,4.46,4.46,0,0,0,.73-1.05,5.91,5.91,0,0,0,.49-1.32c.12-.47.21-1,.29-1.46a13.2,13.2,0,0,0,.15-1.53c0-.52,0-1,0-1.51s0-1,0-1.4v-1.27c0-.47,0-1,0-1.48a12.47,12.47,0,0,0-.07-1.6c-.06-.56-.13-1.09-.22-1.61a6.15,6.15,0,0,0-.43-1.48,5.63,5.63,0,0,0-.73-1.23,2.87,2.87,0,0,0-1.1-.82,3.81,3.81,0,0,0-1.54-.31,3.68,3.68,0,0,0-1.37.24,2.79,2.79,0,0,0-1,.65,5.24,5.24,0,0,0-.73,1,4.93,4.93,0,0,0-.48,1.21c-.11.44-.21.89-.29,1.36a8.67,8.67,0,0,0-.15,1.42c0,.48,0,.94-.05,1.4a10.84,10.84,0,0,0,0,1.28v1.27c0,.39,0,.79,0,1.22s0,.88,0,1.34.07.91.11,1.37a10.07,10.07,0,0,0,.2,1.34c.1.44.21.86.34,1.25a4.87,4.87,0,0,0,.51,1.08,4,4,0,0,0,.71.85,3,3,0,0,0,1,.57A3.53,3.53,0,0,0,140.89,339.82Z"/><path class="1e69c386-1a38-4984-97dd-0d5c484cefcd" d="M191.87,321.31a11.58,11.58,0,0,0-3.08.36,3.64,3.64,0,0,0-2,1.39l-5,6.84L190.1,339h2.37v7H175v-7h2.46l-4.73-5.35-2.15,2.94a2.09,2.09,0,0,0-.28.58,2.2,2.2,0,0,0-.12.65,1.07,1.07,0,0,0,.37.85,1.24,1.24,0,0,0,.87.33H173l.11,7H157v-7a10.1,10.1,0,0,0,3.65-.47,6.08,6.08,0,0,0,2.3-2.13l5.59-7.19-7.22-7.94H158.8v-6.87h17.09v6.87h-1.6l3.16,4,.42-.62c.3-.43.6-.91.89-1.43a2.94,2.94,0,0,0,.44-1.1c0-.25-.21-.45-.62-.62a2.94,2.94,0,0,0-1.06-.24v-6.87h14.35Z"/><path class="1e69c386-1a38-4984-97dd-0d5c484cefcd" d="M212.06,321.31H209.2V339h2.74v7H195.16v-7H198V321.31h-2.78v-6.87h16.82Z"/><path class="1e69c386-1a38-4984-97dd-0d5c484cefcd" d="M238.88,344.07a11.12,11.12,0,0,1-7.69,2.53,20.43,20.43,0,0,1-5.33-.68,16.07,16.07,0,0,1-4.58-2,14.67,14.67,0,0,1-3.56-3.24,13.93,13.93,0,0,1-2.32-4.47,17.8,17.8,0,0,1-.83-5.56,20.2,20.2,0,0,1,1-6.49,16.19,16.19,0,0,1,2.95-5.31,13.3,13.3,0,0,1,4.93-3.62,16.6,16.6,0,0,1,6.73-1.32,10.94,10.94,0,0,1,6.48,1.77l.86-1.21h6.13v13.2h-5.61a18.58,18.58,0,0,0-.32-2,9.86,9.86,0,0,0-.57-1.75,4.61,4.61,0,0,0-.95-1.47,4.19,4.19,0,0,0-1.48-.91,5.87,5.87,0,0,0-2.15-.36,6.24,6.24,0,0,0-2.41.43,4.3,4.3,0,0,0-1.71,1.26,8.5,8.5,0,0,0-1.1,1.76,9.16,9.16,0,0,0-.66,2.18c-.14.83-.24,1.58-.29,2.26s-.08,1.43-.08,2.25q0,8.58,6.14,8.58a4.23,4.23,0,0,0,2.59-.82,2.67,2.67,0,0,0,1.1-2.25,6.47,6.47,0,0,0-.15-1.58l-3.11,0v-5.92h12.16V346H239.7Z"/><path class="1e69c386-1a38-4984-97dd-0d5c484cefcd" d="M268.41,327.19l-1.48-5.88h-4.14v5.49h4v6.85h-4V339h4.26l.25-1.18,1.23-5.2h5.31V346h-24.9v-7H252V321.31h-3.08v-6.87h24.69v12.73Z"/><path class="1e69c386-1a38-4984-97dd-0d5c484cefcd" d="M311.33,321.31a3.1,3.1,0,0,0-2.36.76,3.13,3.13,0,0,0-.71,2.2V346h-11.8l-9.21-17.67v7.8a2.93,2.93,0,0,0,.71,2.24,3.52,3.52,0,0,0,2.37.64v7h-12.4v-7a4.7,4.7,0,0,0,1.51-.21,2.52,2.52,0,0,0,.93-.51,1.72,1.72,0,0,0,.49-.84,4.73,4.73,0,0,0,.2-1c0-.29,0-.68,0-1.17V321.27h-3.05v-6.83h14.3l9.66,19v-9.13c0-.31,0-.55,0-.7a6.11,6.11,0,0,0-.08-.67,1.41,1.41,0,0,0-.26-.69,3.14,3.14,0,0,0-.52-.5,1.78,1.78,0,0,0-.88-.36,6.73,6.73,0,0,0-1.33-.08v-6.87l12.4,0Z"/><path class="1e69c386-1a38-4984-97dd-0d5c484cefcd" d="M345,330.3a16.8,16.8,0,0,1-2.09,8.32,15.34,15.34,0,0,1-5.75,5.86,16.61,16.61,0,0,1-16.24,0,15.27,15.27,0,0,1-5.75-5.86,16.69,16.69,0,0,1-2.09-8.32,17.73,17.73,0,0,1,2.09-8.78,14.09,14.09,0,0,1,5.68-5.72,17,17,0,0,1,8.23-1.94,16.77,16.77,0,0,1,8.14,1.94,14.12,14.12,0,0,1,5.69,5.72A17.84,17.84,0,0,1,345,330.3Zm-16,9.52a3.44,3.44,0,0,0,1.36-.25,3,3,0,0,0,1-.7,4.46,4.46,0,0,0,.73-1.05,5.91,5.91,0,0,0,.49-1.32c.12-.47.21-1,.29-1.46a13.2,13.2,0,0,0,.15-1.53c0-.52,0-1,.05-1.51s0-1,0-1.4v-1.27c0-.47,0-1,0-1.48a12.47,12.47,0,0,0-.07-1.6c-.06-.56-.13-1.09-.22-1.61a6.15,6.15,0,0,0-.43-1.48,5.63,5.63,0,0,0-.73-1.23,2.87,2.87,0,0,0-1.1-.82,3.81,3.81,0,0,0-1.54-.31,3.72,3.72,0,0,0-1.37.24,2.79,2.79,0,0,0-1,.65,4.79,4.79,0,0,0-.72,1,4.59,4.59,0,0,0-.49,1.21c-.11.44-.21.89-.29,1.36a8.67,8.67,0,0,0-.15,1.42c0,.48,0,.94-.05,1.4s0,.88,0,1.28v1.27c0,.39,0,.79,0,1.22s0,.88,0,1.34.07.91.11,1.37a10.07,10.07,0,0,0,.2,1.34c.1.44.21.86.34,1.25a4.87,4.87,0,0,0,.51,1.08,4,4,0,0,0,.71.85,3.06,3.06,0,0,0,1,.57A3.53,3.53,0,0,0,329,339.82Z"/><path class="1e69c386-1a38-4984-97dd-0d5c484cefcd" d="M212.17,321.31h-2.86V339h2.74v7H195.27v-7h2.86V321.31h-2.78v-6.87h16.82Zm-2-14.31-10.78,6.1-2-2.75,9.23-8.51Z"/><path class="1e69c386-1a38-4984-97dd-0d5c484cefcd" d="M141.6,374.36H131.46l-3,8.08h-3.08l9.51-25.52h3.64l9,25.52H144.4Zm-1-2.34-3.88-12.17L132.4,372Z"/><path class="1e69c386-1a38-4984-97dd-0d5c484cefcd" d="M154.94,356.62h6.42c8.94,0,15.47,3.12,15.47,13.12,0,8.63-5.54,12.78-13.7,12.78h-8.19Zm3.05,23.2h5.46c6.35,0,10.11-3.3,10.11-10,0-8.16-4.72-10.54-11.81-10.54H158Z"/><path class="1e69c386-1a38-4984-97dd-0d5c484cefcd" d="M182,369.6c0-8.05,4.65-13.51,12.67-13.51s12.63,5.46,12.63,13.51c0,7.59-4.33,13.31-12.63,13.31S182,377.19,182,369.6Zm3.3,0c0,6,2.84,10.68,9.37,10.68S204,375.56,204,369.6c0-6.45-3.09-10.85-9.33-10.85S185.31,363.07,185.31,369.6Z"/><path class="1e69c386-1a38-4984-97dd-0d5c484cefcd" d="M216.25,382.52h-2.87v-25.9h3.33l9.65,19.9,9.58-19.9h3.2v25.9h-2.88V362.15l-8.19,17.21h-3.48l-8.34-17.31Z"/><path class="1e69c386-1a38-4984-97dd-0d5c484cefcd" d="M249.36,382.52h-3.05v-25.9h3.05Z"/><path class="1e69c386-1a38-4984-97dd-0d5c484cefcd" d="M275.72,358.46l-1.1,2.34a10.55,10.55,0,0,0-6.39-2.05c-6.27,0-9.18,5.1-9.18,10.85,0,5.5,2.55,10.68,9.36,10.68a10.06,10.06,0,0,0,6.21-2.13l1,2.52c-1.7,1.53-4.08,2.24-7.45,2.24-8.12,0-12.41-6-12.41-13.31,0-7.66,4.4-13.51,12.38-13.51A11.5,11.5,0,0,1,275.72,358.46Z"/><path class="1e69c386-1a38-4984-97dd-0d5c484cefcd" d="M284,382.52H281v-25.9H284Z"/><path class="1e69c386-1a38-4984-97dd-0d5c484cefcd" d="M294.35,356.62v23.2H305.7l-.17,2.7H291.27v-25.9Z"/><path class="1e69c386-1a38-4984-97dd-0d5c484cefcd" d="M313.33,382.52h-3.05v-25.9h3.05Z"/><path class="1e69c386-1a38-4984-97dd-0d5c484cefcd" d="M319.72,369.6c0-8.05,4.65-13.51,12.67-13.51S345,361.55,345,369.6c0,7.59-4.33,13.31-12.63,13.31S319.72,377.19,319.72,369.6Zm3.3,0c0,6,2.84,10.68,9.37,10.68s9.33-4.72,9.33-10.68c0-6.45-3.09-10.85-9.33-10.85S323,363.07,323,369.6Z"/></svg>